<svg id="Layer_3" data-name="Layer 3" xmlns="http://www.w3.org/2000/svg" viewBox="0 0 980.47 894.6"><defs><style>.cls-1{fill:#fff;}</style></defs><title>Logo</title><path class="cls-1" d="M522.78,793.62c-23.32,0-42.23-9.1-42.23-20.33V613.37c0-11.23,18.91-20.33,42.23-20.33S565,602.14,565,613.37V773.29C565,784.52,546.1,793.62,522.78,793.62Z" transform="translate(-26.75 -71.27)"/><path class="cls-1" d="M626.47,759.77c-23.19-3.69-53-5.29-58.25-5.56-17.34-.9-32.43-1-44.75-.82l-.69,40.15q4.63,0,9.5.12s7,.18,13.49.59c7,.44,31,3.16,42.37,6.16,4.4,1.16,21.16,5.93,52.54,42,40.41,46.44,47.22,78.18,66.41,77.25,8.65-.42,17.71-7.37,21.28-15,6.5-14-6-28.64.41-35.09,1-1,4.16-3.7,23,1.35,28.2,7.54,41.45,17.77,48.53,12.5a23,23,0,0,0,8.38-12.9v-.05c4.12-22.26-34.52-46.21-60.54-62.34C727.68,795.36,684.23,769,626.47,759.77Z" transform="translate(-26.75 -71.27)"/><path class="cls-1" d="M770.11,920.68c-8.82-2.69-19.43.06-25.3,8.13-6.75,9.29-4.7,22.18,2.71,29.82,6.49,6.69,17.15,9.42,26.21,5.29a22.58,22.58,0,0,0,12.64-16.13C788.51,936.67,781.7,924.22,770.11,920.68Z" transform="translate(-26.75 -71.27)"/><path class="cls-1" d="M1000.28,516.81h0A706.47,706.47,0,0,0,947,329c-23.67-53.49-38.74-87.52-73.87-123.53-53.07-54.4-121.94-82.45-157.42-97-18.59-7.63-33.16-12.39-37-13.62A485.88,485.88,0,0,0,528.2,71.27H58.74a32,32,0,0,0-32,32V581.38A31.88,31.88,0,0,0,36.12,604a32.67,32.67,0,0,0,22.62,9.37H523.47v0l.52,0h4.21v-.23c22.3-1,51.13,1.8,75.89,19.2,34.65,24.37,33.48,59.08,60.08,65.51,33.89,8.18,57.57-41.76,84.93-33.43,36.06,11,26,107.44,49.9,111.58,26.93,4.66,59.77-114.36,85.63-109.77C897.22,668.46,899,698.37,911,755c14.56,68.83,30.17,141.7,46,142C982.33,897.47,1023.72,712.17,1000.28,516.81Z" transform="translate(-26.75 -71.27)"/><path class="cls-1" d="M528.2,793.62H316.78a20.33,20.33,0,0,1,0-40.66H528.2a20.33,20.33,0,0,1,0,40.66Z" transform="translate(-26.75 -71.27)"/><path class="cls-1" d="M953.24,920.39a16.37,16.37,0,0,0-17.87,5.74c-4.77,6.56-3.32,15.66,1.92,21.06a16.6,16.6,0,0,0,18.5,3.73,15.93,15.93,0,0,0,8.93-11.39A17.08,17.08,0,0,0,953.24,920.39Z" transform="translate(-26.75 -71.27)"/></svg>